<mxfile host="app.diagrams.net" modified="2023-12-14T12:37:06.014Z" agent="Mozilla/5.0 (Windows NT 10.0; Win64; x64) AppleWebKit/537.36 (KHTML, like Gecko) Chrome/120.0.0.0 Safari/537.36 Edg/120.0.0.0" etag="BGMU1_26bEsCUDd7YtlQ" version="22.1.8" type="device">
  <diagram name="Page-1" id="9f46799a-70d6-7492-0946-bef42562c5a5">
    <mxGraphModel dx="2253" dy="785" grid="1" gridSize="10" guides="1" tooltips="1" connect="1" arrows="1" fold="1" page="1" pageScale="1" pageWidth="827" pageHeight="1169" background="none" math="0" shadow="0">
      <root>
        <mxCell id="0" />
        <mxCell id="1" parent="0" />
        <mxCell id="47w0NPy8Mnswacpj5o8W-28" value="" style="whiteSpace=wrap;html=1;aspect=fixed;fillColor=#e1d5e7;strokeColor=#9673a6;" parent="1" vertex="1">
          <mxGeometry x="-100" y="80" width="510" height="510" as="geometry" />
        </mxCell>
        <mxCell id="47w0NPy8Mnswacpj5o8W-29" style="edgeStyle=orthogonalEdgeStyle;rounded=0;orthogonalLoop=1;jettySize=auto;html=1;" parent="1" edge="1">
          <mxGeometry relative="1" as="geometry">
            <mxPoint x="20" y="295" as="targetPoint" />
            <mxPoint x="20" y="295" as="sourcePoint" />
          </mxGeometry>
        </mxCell>
        <mxCell id="47w0NPy8Mnswacpj5o8W-30" value="&lt;font style=&quot;font-size: 18px;&quot;&gt;Header&lt;/font&gt;" style="swimlane;html=1;fontStyle=1;align=center;verticalAlign=top;childLayout=stackLayout;horizontal=1;startSize=35;horizontalStack=0;resizeParent=1;resizeLast=0;collapsible=1;marginBottom=0;swimlaneFillColor=#ffffff;rounded=0;shadow=0;comic=0;labelBackgroundColor=none;strokeWidth=1;fillColor=#ffe6cc;fontFamily=Verdana;fontSize=12;strokeColor=#d79b00;" parent="1" vertex="1">
          <mxGeometry x="-90" y="155" width="160" height="35" as="geometry" />
        </mxCell>
        <mxCell id="47w0NPy8Mnswacpj5o8W-47" style="edgeStyle=orthogonalEdgeStyle;rounded=0;orthogonalLoop=1;jettySize=auto;html=1;exitX=0.5;exitY=1;exitDx=0;exitDy=0;" parent="1" source="47w0NPy8Mnswacpj5o8W-31" edge="1">
          <mxGeometry relative="1" as="geometry">
            <mxPoint x="-10" y="500" as="targetPoint" />
          </mxGeometry>
        </mxCell>
        <mxCell id="47w0NPy8Mnswacpj5o8W-31" value="&lt;font style=&quot;font-size: 18px;&quot;&gt;Footer&lt;/font&gt;" style="swimlane;html=1;fontStyle=1;align=center;verticalAlign=top;childLayout=stackLayout;horizontal=1;startSize=35;horizontalStack=0;resizeParent=1;resizeLast=0;collapsible=1;marginBottom=0;swimlaneFillColor=#ffffff;rounded=0;shadow=0;comic=0;labelBackgroundColor=none;strokeWidth=1;fillColor=#ffe6cc;fontFamily=Verdana;fontSize=12;strokeColor=#d79b00;" parent="1" vertex="1">
          <mxGeometry x="-90" y="445" width="160" height="35" as="geometry" />
        </mxCell>
        <mxCell id="47w0NPy8Mnswacpj5o8W-32" value="Opthalmology" style="swimlane;html=1;fontStyle=1;align=center;verticalAlign=top;childLayout=stackLayout;horizontal=1;startSize=26;horizontalStack=0;resizeParent=1;resizeLast=0;collapsible=1;marginBottom=0;swimlaneFillColor=#ffffff;rounded=0;shadow=0;comic=0;labelBackgroundColor=none;strokeWidth=1;fillColor=#ffe6cc;fontFamily=Verdana;fontSize=12;strokeColor=#d79b00;" parent="1" vertex="1">
          <mxGeometry x="280" y="373" width="120" height="66" as="geometry" />
        </mxCell>
        <mxCell id="47w0NPy8Mnswacpj5o8W-33" style="edgeStyle=orthogonalEdgeStyle;rounded=0;orthogonalLoop=1;jettySize=auto;html=1;exitX=0.5;exitY=1;exitDx=0;exitDy=0;" parent="1" source="47w0NPy8Mnswacpj5o8W-34" edge="1">
          <mxGeometry relative="1" as="geometry">
            <mxPoint x="340" y="225" as="targetPoint" />
          </mxGeometry>
        </mxCell>
        <mxCell id="47w0NPy8Mnswacpj5o8W-34" value="Orthopaedics" style="swimlane;html=1;fontStyle=1;align=center;verticalAlign=top;childLayout=stackLayout;horizontal=1;startSize=26;horizontalStack=0;resizeParent=1;resizeLast=0;collapsible=1;marginBottom=0;swimlaneFillColor=#ffffff;rounded=0;shadow=0;comic=0;labelBackgroundColor=none;strokeWidth=1;fillColor=#ffe6cc;fontFamily=Verdana;fontSize=12;strokeColor=#d79b00;" parent="1" vertex="1">
          <mxGeometry x="280" y="175" width="120" height="78" as="geometry" />
        </mxCell>
        <mxCell id="47w0NPy8Mnswacpj5o8W-35" value="Spine" style="swimlane;html=1;fontStyle=1;align=center;verticalAlign=top;childLayout=stackLayout;horizontal=1;startSize=26;horizontalStack=0;resizeParent=1;resizeLast=0;collapsible=1;marginBottom=0;swimlaneFillColor=#ffffff;rounded=0;shadow=0;comic=0;labelBackgroundColor=none;strokeWidth=1;fillColor=#ffe6cc;fontFamily=Verdana;fontSize=12;strokeColor=#d79b00;" parent="1" vertex="1">
          <mxGeometry x="280" y="275" width="120" height="65" as="geometry" />
        </mxCell>
        <mxCell id="47w0NPy8Mnswacpj5o8W-36" value="&lt;font style=&quot;font-size: 14px;&quot;&gt;Home&lt;/font&gt;" style="swimlane;html=1;fontStyle=1;align=center;verticalAlign=top;childLayout=stackLayout;horizontal=1;startSize=26;horizontalStack=0;resizeParent=1;resizeLast=0;collapsible=1;marginBottom=0;swimlaneFillColor=#ffffff;rounded=0;shadow=0;comic=0;labelBackgroundColor=none;strokeWidth=1;fillColor=#ffe6cc;fontFamily=Verdana;fontSize=12;strokeColor=#d79b00;" parent="1" vertex="1">
          <mxGeometry x="-90" y="275" width="160" height="98" as="geometry" />
        </mxCell>
        <mxCell id="47w0NPy8Mnswacpj5o8W-37" value="&lt;font style=&quot;font-size: 14px;&quot;&gt;Services&lt;/font&gt;" style="swimlane;html=1;fontStyle=1;align=center;verticalAlign=top;childLayout=stackLayout;horizontal=1;startSize=26;horizontalStack=0;resizeParent=1;resizeLast=0;collapsible=1;marginBottom=0;swimlaneFillColor=#ffffff;rounded=0;shadow=0;comic=0;labelBackgroundColor=none;strokeWidth=1;fillColor=#ffe6cc;fontFamily=Verdana;fontSize=12;strokeColor=#d79b00;" parent="47w0NPy8Mnswacpj5o8W-36" vertex="1">
          <mxGeometry y="26" width="160" height="24" as="geometry" />
        </mxCell>
        <mxCell id="47w0NPy8Mnswacpj5o8W-38" value="&lt;font style=&quot;font-size: 14px;&quot;&gt;About-Us&lt;/font&gt;" style="swimlane;html=1;fontStyle=1;align=center;verticalAlign=top;childLayout=stackLayout;horizontal=1;startSize=26;horizontalStack=0;resizeParent=1;resizeLast=0;collapsible=1;marginBottom=0;swimlaneFillColor=#ffffff;rounded=0;shadow=0;comic=0;labelBackgroundColor=none;strokeWidth=1;fillColor=#ffe6cc;fontFamily=Verdana;fontSize=12;strokeColor=#d79b00;" parent="47w0NPy8Mnswacpj5o8W-36" vertex="1">
          <mxGeometry y="50" width="160" height="24" as="geometry" />
        </mxCell>
        <mxCell id="47w0NPy8Mnswacpj5o8W-39" value="&lt;font style=&quot;font-size: 14px;&quot;&gt;Insurance&lt;/font&gt;" style="swimlane;html=1;fontStyle=1;align=center;verticalAlign=top;childLayout=stackLayout;horizontal=1;startSize=26;horizontalStack=0;resizeParent=1;resizeLast=0;collapsible=1;marginBottom=0;swimlaneFillColor=#ffffff;rounded=0;shadow=0;comic=0;labelBackgroundColor=none;strokeWidth=1;fillColor=#ffe6cc;fontFamily=Verdana;fontSize=12;strokeColor=#d79b00;" parent="47w0NPy8Mnswacpj5o8W-36" vertex="1">
          <mxGeometry y="74" width="160" height="24" as="geometry" />
        </mxCell>
        <mxCell id="47w0NPy8Mnswacpj5o8W-40" value="" style="endArrow=classic;html=1;rounded=0;edgeStyle=orthogonalEdgeStyle;" parent="1" edge="1">
          <mxGeometry width="50" height="50" relative="1" as="geometry">
            <mxPoint x="70" y="315" as="sourcePoint" />
            <mxPoint x="280" y="315" as="targetPoint" />
            <Array as="points">
              <mxPoint x="70" y="316" />
              <mxPoint x="121" y="316" />
            </Array>
          </mxGeometry>
        </mxCell>
        <mxCell id="47w0NPy8Mnswacpj5o8W-41" value="1" style="edgeLabel;html=1;align=center;verticalAlign=middle;resizable=0;points=[];" parent="47w0NPy8Mnswacpj5o8W-40" vertex="1" connectable="0">
          <mxGeometry x="0.2453" y="-1" relative="1" as="geometry">
            <mxPoint x="20" y="4" as="offset" />
          </mxGeometry>
        </mxCell>
        <mxCell id="47w0NPy8Mnswacpj5o8W-42" value="" style="endArrow=classic;html=1;rounded=0;edgeStyle=orthogonalEdgeStyle;entryX=-0.033;entryY=0.846;entryDx=0;entryDy=0;entryPerimeter=0;" parent="1" edge="1">
          <mxGeometry width="50" height="50" relative="1" as="geometry">
            <mxPoint x="70" y="317.5" as="sourcePoint" />
            <mxPoint x="276.03999999999996" y="409.4960000000001" as="targetPoint" />
            <Array as="points">
              <mxPoint x="120" y="318" />
              <mxPoint x="120" y="409" />
              <mxPoint x="180" y="409" />
              <mxPoint x="180" y="408" />
              <mxPoint x="276" y="408" />
            </Array>
          </mxGeometry>
        </mxCell>
        <mxCell id="47w0NPy8Mnswacpj5o8W-43" value="2" style="edgeLabel;html=1;align=center;verticalAlign=middle;resizable=0;points=[];rotation=0;" parent="47w0NPy8Mnswacpj5o8W-42" vertex="1" connectable="0">
          <mxGeometry x="0.2453" y="-1" relative="1" as="geometry">
            <mxPoint x="45" as="offset" />
          </mxGeometry>
        </mxCell>
        <mxCell id="47w0NPy8Mnswacpj5o8W-44" value="" style="endArrow=classic;html=1;rounded=0;edgeStyle=orthogonalEdgeStyle;entryX=-0.033;entryY=0.231;entryDx=0;entryDy=0;entryPerimeter=0;" parent="1" edge="1">
          <mxGeometry width="50" height="50" relative="1" as="geometry">
            <mxPoint x="70" y="313" as="sourcePoint" />
            <mxPoint x="276.03999999999996" y="205.00599999999997" as="targetPoint" />
            <Array as="points">
              <mxPoint x="70" y="314" />
              <mxPoint x="120" y="314" />
              <mxPoint x="120" y="205" />
            </Array>
          </mxGeometry>
        </mxCell>
        <mxCell id="47w0NPy8Mnswacpj5o8W-45" value="3" style="edgeLabel;html=1;align=center;verticalAlign=middle;resizable=0;points=[];" parent="47w0NPy8Mnswacpj5o8W-44" vertex="1" connectable="0">
          <mxGeometry x="0.6367" relative="1" as="geometry">
            <mxPoint as="offset" />
          </mxGeometry>
        </mxCell>
        <mxCell id="47w0NPy8Mnswacpj5o8W-49" value="React" style="rounded=0;whiteSpace=wrap;html=1;fillColor=#f5f5f5;fontColor=#333333;strokeColor=#666666;" parent="1" vertex="1">
          <mxGeometry x="480" y="80" width="120" height="60" as="geometry" />
        </mxCell>
        <mxCell id="47w0NPy8Mnswacpj5o8W-50" value="EmaiJs" style="rounded=0;whiteSpace=wrap;html=1;fillColor=#f5f5f5;fontColor=#333333;strokeColor=#666666;" parent="1" vertex="1">
          <mxGeometry x="640" y="80" width="120" height="60" as="geometry" />
        </mxCell>
        <mxCell id="47w0NPy8Mnswacpj5o8W-51" value="React Bootstrap" style="rounded=0;whiteSpace=wrap;html=1;fillColor=#f5f5f5;fontColor=#333333;strokeColor=#666666;" parent="1" vertex="1">
          <mxGeometry x="810" y="80" width="120" height="60" as="geometry" />
        </mxCell>
        <mxCell id="47w0NPy8Mnswacpj5o8W-52" value="" style="rounded=0;whiteSpace=wrap;html=1;fillColor=#f5f5f5;fontColor=#333333;strokeColor=#666666;" parent="1" vertex="1">
          <mxGeometry x="970" y="80" width="120" height="60" as="geometry" />
        </mxCell>
      </root>
    </mxGraphModel>
  </diagram>
</mxfile>
